Coordinates
version=1
nRows=22
nColumns=24
inDegrees=yes

Units are S.I. units (second, meters, Newtons, ...)
Angles are in degrees.

endheader
time	pelvis_tilt	pelvis_list	pelvis_rotation	pelvis_tx	pelvis_ty	pelvis_tz	hip_flexion_r	hip_adduction_r	hip_rotation_r	knee_angle_r	ankle_angle_r	subtalar_angle_r	mtp_angle_r	hip_flexion_l	hip_adduction_l	hip_rotation_l	knee_angle_l	ankle_angle_l	subtalar_angle_l	mtp_angle_l	lumbar_extension	lumbar_bending	lumbar_rotation
      0.52100000	     -1.65497228	      6.40807324	      3.34044006	     -0.71993394	      0.97178276	      0.28401205	     27.57085843	     -4.85017773	     -3.70066089	     -4.99730881	      8.76264891	     -5.57949986	      0.29876115	    -14.45221276	     10.55513949	      3.34463199	     -7.88073649	     12.53088366	     -3.43492526	      0.50656417	      2.16705635	     -5.04932300	     -1.62045635
      0.52516667	     -1.66903069	      6.39842599	      3.36485278	     -0.71378512	      0.97117488	      0.28418099	     27.54392701	     -4.79071111	     -3.78168196	     -5.12378988	      8.72979050	     -5.59199855	      0.31461796	    -14.59033234	     10.51477202	      3.32716779	     -8.30016579	     12.37515266	     -3.47866781	      0.51978677	      2.21477268	     -5.02266892	     -1.62912366
      0.52933333	     -1.71334309	      6.34683354	      3.42434204	     -0.70756141	      0.97056850	      0.28429553	     27.56564672	     -4.71454758	     -3.98779055	     -5.36277860	      8.54953473	     -5.62223750	      0.36879074	    -14.66499729	     10.42237345	      3.30025753	     -8.78944018	     12.29396358	     -3.44494058	      0.57753584	      2.33662342	     -4.94463588	     -1.68796349
      0.53350000	     -1.78668091	      6.29449729	      3.48306036	     -0.70135118	      0.96995862	      0.28444496	     27.61918639	     -4.63536864	     -4.10449725	     -5.65748604	      8.31127629	     -5.66595577	      0.48032917	    -14.65836337	     10.32553083	      3.22447291	     -9.37136474	     12.22439893	     -3.29911039	      0.69633085	      2.45480500	     -4.87698931	     -1.77723505
      0.53766667	     -1.83732937	      6.24118550	      3.51892274	     -0.69507831	      0.96941407	      0.28460455	     27.64916883	     -4.54852454	     -4.17860984	     -6.00919107	      8.05517087	     -5.78674815	      0.59684531	    -14.67392566	     10.23222357	      3.13547797	     -9.95385027	     12.09674714	     -3.20406032	      0.82339886	      2.57588148	     -4.79330040	     -1.81437075
      0.54183333	     -1.88623558	      6.16873965	      3.51154857	     -0.68875589	      0.96891526	      0.28486481	     27.63311707	     -4.40834237	     -4.04003152	     -6.30424429	      7.66005528	     -6.25126795	      3.00249487	    -14.65423838	     10.11902312	      2.92302247	    -10.58420192	     11.86483752	     -3.11955057	      3.48197332	      2.70855584	     -4.68812850	     -1.79799773
      0.54600000	     -1.88048446	      6.11336583	      3.54984971	     -0.68243005	      0.96853495	      0.28501526	     27.62397661	     -4.33142511	     -4.15251670	     -6.80385154	      7.39908899	     -6.33534138	      3.00700816	    -14.70357748	     10.02204771	      2.90393580	    -11.21000163	     11.65924147	     -3.15752484	      3.49286688	      2.74511719	     -4.61733211	     -1.80725076
      0.55016667	     -2.01486069	      6.06063446	      3.59455380	     -0.67609964	      0.96800806	      0.28518209	     27.75248144	     -4.25679115	     -4.16034543	     -7.29812362	      6.96357533	     -6.47296886	      3.06643829	    -14.53160043	      9.92895196	      2.79169125	    -11.97398292	     11.49612006	     -2.99215400	      3.59348225	      2.98364015	     -4.53050966	     -1.85944533
      0.55433333	     -2.07584386	      5.97317110	      3.59700184	     -0.66969760	      0.96761889	      0.28542615	     27.78688267	     -4.11985876	     -4.07612259	     -7.80092511	      6.55207468	     -6.85640206	      3.22413416	    -14.42990755	      9.79542613	      2.61688467	    -12.73513193	     11.25398832	     -2.80671291	      3.87883835	      3.13796197	     -4.39900880	     -1.85839515
      0.55850000	     -2.14708059	      5.89654473	      3.59246470	     -0.66329639	      0.96726141	      0.28566755	     27.84252545	     -3.99780023	     -3.99828937	     -8.34167305	      6.05722424	     -7.13969019	      3.35797262	    -14.29931799	      9.68251071	      2.49612095	    -13.52114928	     10.96493530	     -2.76880546	      4.16573905	      3.30103563	     -4.28348887	     -1.83704472
      0.56266667	     -2.21869691	      5.80838810	      3.58949872	     -0.65686564	      0.96696424	      0.28592031	     27.88751985	     -3.86399626	     -3.89958009	     -8.88835720	      5.55698635	     -7.47466265	      3.50315041	    -14.13564221	      9.55125527	      2.35220025	    -14.36021838	     10.61650535	     -2.68237321	      4.53015622	      3.46980977	     -4.15478509	     -1.81233578
      0.56683333	     -2.21333064	      5.66731621	      3.60288199	     -0.65035597	      0.96686407	      0.28617085	     27.78691031	     -3.67773806	     -3.80153967	     -9.33543950	      4.93922675	     -7.98168994	      4.49960517	    -14.03949273	      9.34856515	      2.22883542	    -15.21040815	     10.14597668	     -2.65450855	      7.34696886	      3.55517264	     -3.95053761	     -1.76134544
      0.57100000	     -2.30764427	      5.60952733	      3.56429195	     -0.64392103	      0.96660438	      0.28646579	     27.89372675	     -3.57219027	     -3.70566719	     -9.98024175	      4.47936600	     -8.04334772	      4.51458953	    -13.79014016	      9.25695353	      2.06019950	    -16.13930969	      9.64044954	     -2.59739399	      7.43263625	      3.75574523	     -3.86731304	     -1.74061646
      0.57516667	     -2.38894654	      5.50634451	      3.54665280	     -0.63746531	      0.96643964	      0.28675871	     27.94827529	     -3.42365817	     -3.59405683	    -10.57098629	      3.96453842	     -8.32054111	      4.53510703	    -13.50952377	      9.10383767	      1.88578070	    -17.14508406	      9.15388174	     -2.49392251	      7.60120706	      3.94537808	     -3.71948910	     -1.69329947
      0.57933333	     -2.45056032	      5.37705958	      3.50059996	     -0.63100713	      0.96633661	      0.28712632	     27.98089000	     -3.22807615	     -3.41369137	    -11.17188743	      3.48998542	     -8.83640253	      4.57652241	    -13.21020955	      8.91622288	      1.64978360	    -18.20462997	      8.64842761	     -2.33169212	      8.01637299	      4.11079251	     -3.53275884	     -1.63019789
      0.58350000	     -2.48750800	      5.25246047	      3.47456686	     -0.62452411	      0.96634714	      0.28745153	     27.96170215	     -3.05710905	     -3.30799671	    -11.72729462	      2.96904302	     -8.99838334	      4.58723955	    -12.91760927	      8.73253345	      1.49462834	    -19.28505579	      7.96786426	     -2.27830411	      8.26221701	      4.25001815	     -3.37055584	     -1.58218384
      0.58766667	     -2.52043833	      5.10061906	      3.42456374	     -0.61806107	      0.96639394	      0.28783866	     27.94669501	     -2.83980887	     -3.12828099	    -12.31593128	      2.55361488	     -9.51006415	      4.76475104	    -12.58013514	      8.51211310	      1.26804281	    -20.42605417	      7.20846124	     -2.27502305	     13.37530240	      4.38553764	     -3.15186391	     -1.53578049
      0.59183333	     -2.55686479	      4.96348946	      3.38381266	     -0.61161664	      0.96647216	      0.28820870	     27.94983272	     -2.65762590	     -3.04820054	    -12.93348147	      2.14611199	     -9.66201609	      4.75132096	    -12.18877172	      8.29918763	      1.04218313	    -21.65567275	      6.48921104	     -2.10654780	     13.44290313	      4.52344075	     -2.96555297	     -1.46891531
      0.59600000	     -2.58735973	      4.79762302	      3.33052764	     -0.60520925	      0.96658512	      0.28862965	     27.94589399	     -2.43300555	     -2.92002911	    -13.55653903	      1.79878785	    -10.00481019	      4.72044349	    -11.75909548	      8.05121222	      0.80715227	    -22.94953582	      5.73959177	     -1.95266337	     13.61580521	      4.64743032	     -2.74426537	     -1.40221002
      0.60016667	     -2.60134360	      4.63030658	      3.28684719	     -0.59879917	      0.96678884	      0.28903525	     27.89610256	     -2.21356536	     -2.80106486	    -14.12799843	      1.50013622	    -10.20515835	      4.68819437	    -11.31262020	      7.79676776	      0.60106791	    -24.28099998	      4.84832803	     -1.84843266	     13.78210973	      4.76256539	     -2.52419149	     -1.35058616
      0.60433333	     -2.55681152	      4.40391020	      3.20175276	     -0.59241722	      0.96709357	      0.28958601	     27.76266740	     -1.88902305	     -2.55160630	    -14.65913995	      1.22336657	    -10.84301594	      4.47923937	    -10.87957242	      7.45724863	      0.29586024	    -25.67525898	      3.95804418	     -1.67263399	     14.83645363	      4.79190603	     -2.22865213	     -1.27910475
      0.60850000	     -2.59689324	      4.24184435	      3.17756080	     -0.58610499	      0.96730383	      0.28996014	     27.77374804	     -1.70246248	     -2.54816904	    -15.30788878	      1.06651615	    -10.82268725	      4.43715833	    -10.31482621	      7.20291681	      0.14395525	    -27.13356607	      2.99621510	     -1.59108305	     15.02236098	      4.92254011	     -2.02325751	     -1.23005030
